<?xml version="1.0" encoding="UTF-8"?>
<svg id="Layer_1" data-name="Layer 1" xmlns="http://www.w3.org/2000/svg" viewBox="0 0 500 500">
  <defs>
    <style>
      .cls-1 {
        fill: #e42529;
      }

      .cls-1, .cls-2, .cls-3 {
        stroke-width: 0px;
      }

      .cls-2 {
        fill: #5c5f60;
      }

      .cls-4 {
        isolation: isolate;
      }

      .cls-3 {
        fill: #fff;
      }
    </style>
  </defs>
  <g class="cls-4">
    <g class="cls-4">
      <path class="cls-3" d="M240.5,275.82l1.11.08-.28,3.99,2.05.14-.07,1.02-3.15-.22.35-5.01Z"/>
    </g>
  </g>
  <g class="cls-4">
    <g class="cls-4">
      <path class="cls-3" d="M245.51,278.9l-1.81-2.93,1.38.04,1.01,1.91,1.18-1.85,1.31.04-1.97,2.83-.06,2.14-1.11-.03.06-2.14Z"/>
    </g>
  </g>
  <g class="cls-4">
    <g class="cls-4">
      <path class="cls-3" d="M248.78,278.68c0-.4.05-.77.18-1.1.13-.33.31-.61.54-.85s.52-.42.85-.55c.33-.13.69-.2,1.08-.21s.76.04,1.09.16c.33.12.62.29.87.51s.44.5.58.82c.14.32.22.69.23,1.09s-.05.77-.18,1.1-.31.61-.55.85c-.24.23-.52.42-.85.55-.33.13-.69.2-1.08.21s-.76-.04-1.09-.16c-.33-.11-.62-.29-.87-.51s-.44-.5-.58-.82c-.14-.32-.22-.69-.23-1.09ZM249.93,278.66c0,.24.05.45.13.65.08.2.19.36.33.5s.31.25.5.33c.19.08.41.11.65.11.24,0,.45-.05.64-.14.19-.08.35-.2.49-.35.13-.15.24-.32.3-.52.07-.2.1-.42.1-.65,0-.23-.05-.45-.12-.64-.08-.2-.19-.37-.33-.51-.14-.14-.31-.25-.5-.33-.19-.08-.41-.11-.65-.11-.24,0-.45.05-.64.13-.19.08-.35.2-.49.35-.13.15-.24.32-.3.52-.07.2-.1.42-.1.65Z"/>
    </g>
  </g>
  <g class="cls-4">
    <g class="cls-4">
      <path class="cls-3" d="M254.91,275.95l1.5-.12,2.41,3.31h.01s-.28-3.48-.28-3.48l1.1-.09.4,5.01-1.44.12-2.47-3.39h-.01s.29,3.57.29,3.57l-1.1.09-.4-5.01Z"/>
    </g>
  </g>
  <g>
    <g>
      <path class="cls-3" d="M6.56,250c0-73.95,108.99-133.89,243.44-133.89s243.44,59.94,243.44,133.89-108.99,133.89-243.44,133.89S6.56,323.95,6.56,250"/>
      <path class="cls-2" d="M250,116.11c134.45,0,243.44,59.94,243.44,133.89s-108.99,133.89-243.44,133.89S6.56,323.95,6.56,250,115.55,116.11,250,116.11M250,110.28c-65.99,0-128.12,14.18-174.94,39.94-23.07,12.68-41.23,27.53-53.98,44.11C7.58,211.88.73,230.61.73,250s6.84,38.12,20.34,55.67c12.75,16.58,30.91,31.43,53.98,44.11,46.82,25.75,108.95,39.94,174.94,39.94s128.12-14.18,174.95-39.94c23.06-12.68,41.22-27.53,53.98-44.11,13.5-17.55,20.34-36.28,20.34-55.67s-6.85-38.12-20.34-55.67c-12.75-16.58-30.91-31.43-53.98-44.11-46.83-25.76-108.96-39.94-174.95-39.94"/>
      <path class="cls-1" d="M17.33,250c0,67.68,104.38,122.74,232.67,122.74s232.67-55.06,232.67-122.74-104.38-122.74-232.67-122.74S17.33,182.32,17.33,250"/>
      <polygon class="cls-3" points="319.04 152.35 250 152.35 242.22 152.35 179.41 152.35 179.41 167.91 242.22 167.91 242.22 318.28 257.78 318.28 257.78 167.91 319.04 167.91 319.04 152.35"/>
      <rect class="cls-3" x="199.44" y="193.84" width="15.56" height="124.44"/>
      <rect class="cls-3" x="285.01" y="193.84" width="15.56" height="124.44"/>
      <rect class="cls-3" x="199.44" y="173.1" width="15.56" height="15.56"/>
      <rect class="cls-3" x="284.95" y="173.1" width="15.56" height="15.56"/>
      <path class="cls-3" d="M87.95,297.56h77.77c.13,0,.27,0,.4-.01,2.84-.15,5.25-1.28,7.19-3.37,1.85-2,2.78-4.36,2.78-7.01v-114.06c-.06-10.22-6.87-20.75-18.15-20.75-4.65,0-9.01,1.86-12.3,5.23-3.87,3.97-6,9.69-5.85,15.7,0-.06,0-.13,0-.19v103.72h15.57v-103.72c0-.06-.01-.13-.01-.19-.05-1.76.52-3.51,1.43-4.45.48-.5.85-.54,1.16-.54,1.24,0,2.58,2.69,2.59,5.24,0-.04,0,86.62,0,108.85h-72.6c-8.35.02-20.75,4.86-20.75,18.15,0,4.75,1.68,8.94,4.86,12.12,5.77,5.76,14.25,6.04,15.89,6.03-.01,0,88.14,0,88.14,0v-15.55s-88.15,0-88.15,0c0,0-5.18-.12-5.18-2.6s5.15-2.59,5.2-2.59"/>
      <path class="cls-3" d="M412.08,282h-72.62v-108.91c0-.07,0-.15,0-.22,0-1.3.46-3.78,1.32-4.65.09-.09.31-.32,1.28-.32,2.43,0,2.6,5.21,2.6,5.27,0-.07.06,103.44.06,103.44h15.55s-.05-103.52-.05-103.52c0-8.33-4.85-20.74-18.16-20.74-4.94,0-9.24,1.74-12.45,5.04-5.53,5.7-5.74,13.8-5.7,15.75v113.88c0-.22,0-.43.03-.65-.25,2.96.68,5.68,2.7,7.86,2.05,2.23,4.75,3.39,7.81,3.32-.16,0,77.63,0,77.63,0-.03,0,5.19.18,5.19,2.59,0,.81-.19.99-.29,1.11-1.04,1.03-3.95,1.49-4.88,1.49h-88.16v15.55h88.15c1.63,0,10.11-.27,15.88-6.04,3.18-3.17,4.86-7.36,4.86-12.11,0-13.29-12.4-18.13-20.73-18.15"/>
    </g>
    <g>
      <path class="cls-3" d="M217.32,343.29l3.98.26-.95,14.4,7.38.49-.24,3.68-11.36-.75,1.19-18.08Z"/>
      <path class="cls-3" d="M232.43,354.54l-6.47-10.6,4.96.16,3.62,6.9,4.28-6.65,4.73.15-7.13,10.17-.24,7.72-3.99-.13.25-7.72Z"/>
      <path class="cls-3" d="M244.17,353.59c-.03-1.45.19-2.77.65-3.95.46-1.19,1.12-2.2,1.98-3.04.85-.84,1.87-1.5,3.06-1.96,1.19-.47,2.48-.71,3.9-.74,1.41-.03,2.72.17,3.93.59,1.2.42,2.25,1.04,3.13,1.85.88.81,1.58,1.8,2.09,2.97.51,1.17.78,2.48.8,3.93.03,1.45-.19,2.77-.65,3.95-.46,1.19-1.12,2.2-1.98,3.04s-1.87,1.5-3.06,1.96c-1.19.47-2.49.71-3.9.74-1.42.03-2.72-.17-3.93-.59-1.2-.42-2.25-1.04-3.13-1.85-.88-.81-1.58-1.8-2.09-2.97-.51-1.17-.78-2.48-.8-3.92ZM248.32,353.51c.02.85.16,1.63.44,2.33s.67,1.31,1.17,1.82c.5.51,1.1.91,1.8,1.18s1.47.41,2.32.39c.85-.02,1.62-.18,2.31-.48.69-.3,1.27-.72,1.75-1.25.48-.53.85-1.15,1.1-1.86.25-.71.37-1.5.35-2.35-.02-.84-.16-1.61-.44-2.32-.28-.71-.67-1.32-1.17-1.83-.5-.51-1.11-.9-1.8-1.18-.7-.28-1.47-.41-2.32-.39-.85.02-1.62.18-2.31.48-.68.3-1.27.72-1.75,1.25-.49.53-.85,1.16-1.1,1.88-.25.72-.37,1.5-.35,2.34Z"/>
      <path class="cls-3" d="M266.37,343.98l5.41-.42,8.65,11.96h.05s-.97-12.55-.97-12.55l3.98-.31,1.39,18.06-5.21.4-8.87-12.25h-.05s.99,12.86.99,12.86l-3.98.31-1.39-18.06Z"/>
    </g>
  </g>
</svg>